<?xml version="1.0" encoding="utf-8"?>
<!-- Generator: Adobe Illustrator 23.0.6, SVG Export Plug-In . SVG Version: 6.00 Build 0)  -->
<svg version="1.1" id="Layer_1" xmlns="http://www.w3.org/2000/svg" xmlns:xlink="http://www.w3.org/1999/xlink" x="0px" y="0px"
	 viewBox="0 0 540.4 208.4" style="enable-background:new 0 0 540.4 208.4;" xml:space="preserve">
<style type="text/css">
	.st0{fill:url(#SVGID_1_);}
	.st1{fill:url(#SVGID_2_);}
	.st2{fill:url(#SVGID_3_);}
	.st3{fill:#D02C2F;}
	.st4{fill:#FFFFFF;}
</style>
<g>
	<g>
		<linearGradient id="SVGID_1_" gradientUnits="userSpaceOnUse" x1="83.4975" y1="90.3492" x2="35.7451" y2="90.3492">
			<stop  offset="0" style="stop-color:#A2D45E"/>
			<stop  offset="1" style="stop-color:#00AE42"/>
		</linearGradient>
		<path class="st0" d="M55.3,125.3L44.6,115c-11.4-11.6-11.9-29.5-0.4-41l14.2-14.2c5.8-5.8,15.1-5.8,20.8,0
			c5.8,5.8,5.8,15.1,0,20.8l-23.8,23.8C49.6,110.2,49.6,119.5,55.3,125.3z"/>
		<linearGradient id="SVGID_2_" gradientUnits="userSpaceOnUse" x1="15.5556" y1="124.2237" x2="84.6688" y2="124.2237">
			<stop  offset="0" style="stop-color:#1226AA"/>
			<stop  offset="1" style="stop-color:#584DBC"/>
		</linearGradient>
		<path class="st1" d="M59.5,171.1l-35.4-35.4c-11.4-11.5-11.4-30.1,0-41.6l21-21c-11.5,11.5-11.6,30.2-0.1,41.8l35.4,35.4
			c5.8,5.8,5.8,15.1,0,20.8C74.6,176.8,65.3,176.8,59.5,171.1z"/>
		<linearGradient id="SVGID_3_" gradientUnits="userSpaceOnUse" x1="61.0907" y1="94.9718" x2="109.0257" y2="94.9718">
			<stop  offset="0" style="stop-color:#FFC557"/>
			<stop  offset="1" style="stop-color:#FF4713"/>
		</linearGradient>
		<path class="st2" d="M89.2,60.1l11,9.8c11.4,11.6,11.8,29.8,0.3,41.4l-14.3,14.3c-5.8,5.8-15.1,5.8-20.8,0
			c-5.8-5.8-5.8-15.1,0-20.8l23.8-23.8C95,75.1,95,65.8,89.2,60.1z"/>
		<path class="st3" d="M85.1,14.3l35.4,35.4c11.4,11.5,11.4,30.1,0,41.6l-21,21c11.5-11.5,11.6-30.2,0.1-41.8L64.3,35.1
			c-5.8-5.8-5.8-15.1,0-20.8C70,8.5,79.4,8.5,85.1,14.3z"/>
	</g>
	<g>
		<path class="st4" d="M161.6,131.1v44.3h-18.3v-44.3h-9.5v-15.4h9.5v-5.2c0-13.7,8.3-23.1,22.8-23.1c3.7,0,7,0.5,8.7,1.3v14.9
			c-1-0.2-2.5-0.6-5.4-0.6c-3.2,0-7.8,1.4-7.8,8v4.6h13v15.4H161.6z"/>
		<path class="st4" d="M222.1,169.4c-3.1,5.2-10,7.3-16,7.3c-14.5,0-22.7-10.6-22.7-23.3v-37.7h18.3v33.9c0,5.8,3.1,10.3,9.6,10.3
			c6.1,0,10-4.2,10-10.2v-34h18.3v49c0,5.4,0.5,9.7,0.6,10.7h-17.5C222.4,174.4,222.1,171,222.1,169.4z"/>
		<path class="st4" d="M266.2,155.7c0.2,4.1,3.1,8.1,9.4,8.1c4.7,0,7-2.5,7-5.2c0-2.2-1.4-4-5.9-4.9l-6.8-1.6
			c-12.7-2.8-17.8-10-17.8-18.4c0-10.9,9.6-19.8,22.9-19.8c17.3,0,23.3,10.8,23.9,17.8l-15.1,2.8c-0.5-4-3-7.3-8.5-7.3
			c-3.5,0-6.5,2-6.5,5.2c0,2.5,2,4,4.7,4.4l7.9,1.6c12.4,2.5,18.4,10,18.4,18.7c0,10.2-7.8,20.2-23.8,20.2
			c-18.7,0-24.8-12.1-25.2-18.7L266.2,155.7z"/>
		<path class="st4" d="M365.8,158.3c-2.9,10.3-12.4,19-27.5,19c-16.5,0-31.1-11.8-31.1-31.8c0-19.2,14.3-31.5,29.8-31.5
			c18.5,0,29.9,11.4,29.9,30.6c0,2.5-0.2,5.3-0.4,5.6H325c0.4,6.7,6.5,11.5,13.6,11.5c6.6,0,10.3-3.1,12-7.8L365.8,158.3z
			 M349.3,138.4c-0.2-4.6-3.4-10.1-12-10.1c-7.7,0-11.5,5.6-11.9,10.1H349.3z"/>
	</g>
	<g>
		<rect x="394.6" y="81.9" class="st4" width="4.1" height="116.6"/>
	</g>
	<g>
		<path class="st4" d="M430.9,169.5V122h9.4v47.4H430.9z"/>
		<path class="st4" d="M482.3,153c0,10.1-7.4,17.5-17.3,17.5c-9.8,0-17.3-7.4-17.3-17.5c0-10.2,7.4-17.5,17.3-17.5
			C474.9,135.6,482.3,142.8,482.3,153z M473.4,153c0-6.2-4-9.4-8.4-9.4c-4.3,0-8.4,3.1-8.4,9.4c0,6.2,4,9.4,8.4,9.4
			C469.4,162.4,473.4,159.2,473.4,153z"/>
		<path class="st4" d="M509.9,130.8v38.7h-9.3v-38.7h-15V122h39.3v8.8H509.9z"/>
	</g>
</g>
</svg>
